<?xml version="1.0" encoding="UTF-8" standalone="no"?>
<svg
   height="300mm"
   viewBox="0 0 300 300"
   width="300mm"
   version="1.1"
   id="svg10"
   sodipodi:docname="uflinuxlogo-spaces.svg"
   inkscape:version="1.1.1 (3bf5ae0d25, 2021-09-20)"
   xmlns:inkscape="http://www.inkscape.org/namespaces/inkscape"
   xmlns:sodipodi="http://sodipodi.sourceforge.net/DTD/sodipodi-0.dtd"
   xmlns="http://www.w3.org/2000/svg"
   xmlns:svg="http://www.w3.org/2000/svg">
  <defs
     id="defs14" />
  <sodipodi:namedview
     id="namedview12"
     pagecolor="#ffffff"
     bordercolor="#666666"
     borderopacity="1.0"
     inkscape:pageshadow="2"
     inkscape:pageopacity="0.0"
     inkscape:pagecheckerboard="0"
     inkscape:document-units="mm"
     showgrid="false"
     width="230mm"
     inkscape:zoom="0.39241848"
     inkscape:cx="-58.610899"
     inkscape:cy="619.23689"
     inkscape:window-width="1920"
     inkscape:window-height="1011"
     inkscape:window-x="0"
     inkscape:window-y="32"
     inkscape:window-maximized="1"
     inkscape:current-layer="svg10"
     height="250mm" />
  <circle
     style="fill:#ffffff;stroke-width:0.259373"
     id="path164"
     cx="150"
     cy="150"
     r="108.59476" />
  <g
     stroke="#000000"
     stroke-width="0.475871"
     transform="translate(74.014978,50.000345)"
     id="g8">
    <path
       d="M 75.995202,0.0888762 C 89.643503,33.898141 91.508556,33.940823 116.89748,57.983248 c 7.91192,7.290414 3.32722,17.786426 -9.96631,30.641855 15.33098,-8.345231 24.89298,-11.014397 43.51633,-9.269012 3.71553,21.855879 0.48007,35.585059 -24.52129,59.941819 -1.13849,8.01415 9.68042,9.65617 9.68042,9.65617 -1.25981,3.9489 -6.24612,10.51862 -19.43367,10.66362 -20.450474,-0.0903 -24.325799,-0.51911 -40.187936,-8.05142 z"
       id="path2" />
    <path
       d="M 75.974844,0.0888798 C 62.326535,33.898142 60.461491,33.940822 35.07256,57.983256 27.160641,65.273662 31.745353,75.769674 45.038876,88.625103 29.707898,80.279872 20.145893,77.610706 1.5225463,79.356091 -2.1929899,101.21197 1.0424725,114.94115 26.043838,139.29791 c 1.138493,8.01415 -9.680424,9.65617 -9.680424,9.65617 1.259808,3.9489 6.246129,10.51862 19.433681,10.66362 20.450459,-0.0903 24.32578,-0.51911 40.187929,-8.05142 z"
       id="path4" />
    <path
       d="m 74.546109,151.41388 c 0.07698,10.72635 0.496824,21.62825 -3.80697,31.16957 -2.329712,5.16487 -10.4888,9.56669 -8.208777,14.69252 0.942251,2.11832 5.534342,3.50122 6.781164,1.54659 4.884705,-7.65768 5.724573,-9.22155 7.494972,-15.70375 2.780008,-10.17882 2.113863,-21.51758 0.773291,-31.64544 z"
       id="path6" />
  </g>
</svg>
